<svg xmlns="http://www.w3.org/2000/svg" width="24.274" height="27.587" viewBox="0 0 24.274 27.587">
  <g id="Group_231" data-name="Group 231" transform="translate(-4839 993)">
    <path id="Union_2" data-name="Union 2" d="M6.62,15.449a4.414,4.414,0,0,0,3.6-6.97l-.434-.609-.609-.434A4.414,4.414,0,1,0,6.62,15.449m0,2.207A6.621,6.621,0,1,1,10.457,5.638l3.431-3.431H11.034V0h6.62V6.62H15.447V3.768L12.017,7.2a6.621,6.621,0,0,1-5.4,10.458Z" transform="translate(4845.621 -993)" fill="#adadad"/>
    <path id="Union_4" data-name="Union 4" d="M6.621,11.1l.738-.124a4.413,4.413,0,1,0-1.476,0l.738.124m1.1,9.869H5.518V18.76H3.126V16.553H5.518v-3.4a6.622,6.622,0,1,1,2.207,0v3.4h2.389V18.76H7.724Z" transform="translate(4839 -986.379)" fill="#adadad"/>
  </g>
</svg>
