<svg xmlns="http://www.w3.org/2000/svg" width="18.275" height="20.305" viewBox="0 0 18.275 20.305">
  <path id="ic_date_range_24px" d="M9.092,11.137H7.061v2.031H9.092Zm4.061,0H11.122v2.031h2.031Zm4.061,0H15.183v2.031h2.031Zm2.031-7.107H18.229V2H16.2V4.031H8.076V2H6.046V4.031H5.031A2.021,2.021,0,0,0,3.01,6.061L3,20.275a2.03,2.03,0,0,0,2.031,2.031H19.244a2.037,2.037,0,0,0,2.031-2.031V6.061A2.037,2.037,0,0,0,19.244,4.031Zm0,16.244H5.031V9.107H19.244Z" transform="translate(-3 -2)" fill="#adadad"/>
</svg>
