<svg xmlns="http://www.w3.org/2000/svg" width="17.406" height="22.846" viewBox="0 0 17.406 22.846">
  <path id="ic_lock_open_24px" d="M12.7,18.406a2.176,2.176,0,1,0-2.176-2.176A2.182,2.182,0,0,0,12.7,18.406Zm6.527-9.791H18.143V6.44a5.44,5.44,0,1,0-10.879,0H9.331a3.373,3.373,0,0,1,6.745,0V8.615h-9.9A2.182,2.182,0,0,0,4,10.791V21.67a2.182,2.182,0,0,0,2.176,2.176H19.231a2.182,2.182,0,0,0,2.176-2.176V10.791A2.182,2.182,0,0,0,19.231,8.615Zm0,13.055H6.176V10.791H19.231Z" transform="translate(-4 -1)" fill="#ea9393"/>
</svg>
