<svg xmlns="http://www.w3.org/2000/svg" width="18.189" height="18.189" viewBox="0 0 18.189 18.189">
  <path id="ic_phone_24px" d="M6.658,10.872a15.307,15.307,0,0,0,6.659,6.659l2.223-2.223a1,1,0,0,1,1.031-.243,11.527,11.527,0,0,0,3.607.576,1.013,1.013,0,0,1,1.01,1.01v3.527a1.013,1.013,0,0,1-1.01,1.01A17.177,17.177,0,0,1,3,4.01,1.013,1.013,0,0,1,4.01,3H7.547a1.013,1.013,0,0,1,1.01,1.01,11.479,11.479,0,0,0,.576,3.607,1.014,1.014,0,0,1-.253,1.031Z" transform="translate(-3 -3)" fill="#adadad"/>
</svg>
