<svg xmlns="http://www.w3.org/2000/svg" width="73.285" height="46.636" viewBox="0 0 73.285 46.636">
  <path id="ic_group_24px" d="M50.967,24.987a9.993,9.993,0,1,0-9.993-9.993A9.952,9.952,0,0,0,50.967,24.987Zm-26.649,0a9.993,9.993,0,1,0-9.993-9.993A9.952,9.952,0,0,0,24.318,24.987Zm0,6.662C16.556,31.649,1,35.547,1,43.308v8.328H47.636V43.308C47.636,35.547,32.08,31.649,24.318,31.649Zm26.649,0c-.966,0-2.065.067-3.231.167,3.864,2.8,6.562,6.562,6.562,11.492v8.328H74.285V43.308C74.285,35.547,58.729,31.649,50.967,31.649Z" transform="translate(-1 -5)" fill="#dbdbdb"/>
</svg>
