<svg xmlns="http://www.w3.org/2000/svg" width="55.681" height="38.668" viewBox="0 0 55.681 38.668">
  <g id="Group_91" data-name="Group 91" transform="translate(0)">
    <rect id="Rectangle_209" data-name="Rectangle 209" width="34.027" height="35.574" rx="9" transform="translate(21.653 3.093)" fill="#dbdbdb"/>
    <path id="Subtraction_15" data-name="Subtraction 15" d="M22.316,35.574H9a9.01,9.01,0,0,1-9-9V9A9.01,9.01,0,0,1,9,0H25.027a9,9,0,0,1,6.791,3.093H29.107a9.01,9.01,0,0,0-9,9V29.668a9,9,0,0,0,2.208,5.905Z" transform="translate(0 0)" fill="#dbdbdb"/>
    <text id="A" transform="translate(37.934 27.187)" fill="#fff" font-size="22" font-family="Roboto-Regular, Roboto"><tspan x="-7.176" y="0">A</tspan></text>
    <path id="Subtraction_17" data-name="Subtraction 17" d="M16.169,11.65a7.231,7.231,0,0,1-2.039-.282L14.564,9.9a5.311,5.311,0,0,0,1.581.222c.092,0,.174,0,.252-.006v1.526C16.329,11.648,16.254,11.65,16.169,11.65Zm-7.324-.07h0L7.754,10.431a5.441,5.441,0,0,0,.891-.95,6.975,6.975,0,0,0,.715-1.2,6.858,6.858,0,0,0,.475-1.359A6.279,6.279,0,0,0,10,5.486a5.739,5.739,0,0,0-.322-1.951,4.684,4.684,0,0,0-.9-1.547A4.089,4.089,0,0,0,7.385.974,4.357,4.357,0,0,0,5.6.61,4.359,4.359,0,0,0,3.811.974,4.113,4.113,0,0,0,2.417,1.987a4.71,4.71,0,0,0-.9,1.547,5.76,5.76,0,0,0-.322,1.951,6.256,6.256,0,0,0,.17,1.442,6.9,6.9,0,0,0,.474,1.359,7.117,7.117,0,0,0,.715,1.2,5.5,5.5,0,0,0,.891.95l-1.09,1.148A7.79,7.79,0,0,1,1.186,10.4,8.2,8.2,0,0,1,.261,8.942a8.033,8.033,0,0,1-.61-1.664,7.58,7.58,0,0,1-.216-1.8A6.944,6.944,0,0,1-.109,2.937,6.137,6.137,0,0,1,1.169.915,5.93,5.93,0,0,1,3.12-.427,6.24,6.24,0,0,1,5.6-.913,6.274,6.274,0,0,1,7.286-.69a5.943,5.943,0,0,1,3.632,2.883A6.4,6.4,0,0,1,11.81.9a5.281,5.281,0,0,1,1.177-.978A5.635,5.635,0,0,1,14.446-.7a6.562,6.562,0,0,1,1.723-.217c.184,0,.374.008.565.022A8.986,8.986,0,0,0,16.445.618c-.1-.005-.189-.008-.277-.008a4.492,4.492,0,0,0-1.693.317,4.24,4.24,0,0,0-1.36.878,4.526,4.526,0,0,0-.937,1.325,5.17,5.17,0,0,0-.452,1.652,6.616,6.616,0,0,1,.036.691,7.557,7.557,0,0,1-.217,1.8,8.053,8.053,0,0,1-.609,1.664,8.19,8.19,0,0,1-.926,1.453,7.8,7.8,0,0,1-1.165,1.184Z" transform="translate(3.709 10.538)" fill="#fff"/>
  </g>
</svg>
