<svg xmlns="http://www.w3.org/2000/svg" width="72.555" height="72.555" viewBox="0 0 72.555 72.555">
  <g id="Group_47" data-name="Group 47" transform="translate(-138.5 -226.5)">
    <path id="Path_7" data-name="Path 7" d="M180.764,299.055H168.791a1.855,1.855,0,0,1-1.819-1.491l-1.281-6.4a20.381,20.381,0,0,1-4.308-2.174l-4.949,3.712a1.855,1.855,0,0,1-2.425-.172l-8.98-8.98a1.855,1.855,0,0,1-.172-2.425l3.748-5a27.744,27.744,0,0,1-2.164-4.251l-6.45-1.29a1.855,1.855,0,0,1-1.491-1.819V256.791a1.855,1.855,0,0,1,1.491-1.819l6.435-1.287a24.365,24.365,0,0,1,1.8-3.522c.134-.231.271-.464.406-.7l-3.771-5.028a1.855,1.855,0,0,1,.172-2.424l8.98-8.98a1.855,1.855,0,0,1,2.425-.172l4.991,3.743.068-.041a23.171,23.171,0,0,1,4.2-2.156l1.283-6.413a1.855,1.855,0,0,1,1.819-1.491h11.973a1.855,1.855,0,0,1,1.819,1.491l1.283,6.413a23.166,23.166,0,0,1,4.2,2.156l.068.041,4.991-3.743a1.855,1.855,0,0,1,2.425.172l8.98,8.98a1.855,1.855,0,0,1,.172,2.424l-3.743,4.991.041.067a23.166,23.166,0,0,1,2.156,4.2l6.412,1.283a1.855,1.855,0,0,1,1.491,1.819v11.973a1.855,1.855,0,0,1-1.491,1.819l-6.412,1.283a23.164,23.164,0,0,1-2.156,4.2l-.041.068,3.743,4.991a1.855,1.855,0,0,1-.172,2.425l-8.98,8.98a1.855,1.855,0,0,1-2.425.172l-4.99-3.743-.058.035a23.181,23.181,0,0,1-4.207,2.162l-1.282,6.412A1.855,1.855,0,0,1,180.764,299.055Zm-10.452-3.71h8.932l1.2-5.992a1.855,1.855,0,0,1,1.328-1.425,16.9,16.9,0,0,0,4.382-2.112c.376-.227.76-.46,1.16-.694a1.855,1.855,0,0,1,2.049.118l4.7,3.524,6.7-6.7-3.525-4.7a1.855,1.855,0,0,1-.118-2.048c.236-.4.47-.791.7-1.17a16.877,16.877,0,0,0,2.107-4.372,1.855,1.855,0,0,1,1.425-1.328l5.992-1.2v-8.932l-5.992-1.2a1.855,1.855,0,0,1-1.425-1.328,16.876,16.876,0,0,0-2.107-4.372c-.229-.379-.464-.766-.7-1.17a1.855,1.855,0,0,1,.118-2.048l3.525-4.7-6.7-6.7-4.7,3.525a1.855,1.855,0,0,1-2.048.118c-.4-.236-.791-.47-1.171-.7a16.874,16.874,0,0,0-4.372-2.107,1.855,1.855,0,0,1-1.328-1.425l-1.2-5.992h-8.932l-1.2,5.992a1.855,1.855,0,0,1-1.328,1.425,16.876,16.876,0,0,0-4.372,2.107c-.379.229-.767.464-1.171.7a1.855,1.855,0,0,1-2.048-.118l-4.7-3.525-6.7,6.7,3.525,4.7a1.855,1.855,0,0,1,.158,1.976c-.348.662-.7,1.271-1.046,1.859a16.711,16.711,0,0,0-1.808,3.78,1.855,1.855,0,0,1-1.418,1.3l-5.992,1.2v8.932l5.992,1.2a1.855,1.855,0,0,1,1.4,1.251,22.343,22.343,0,0,0,2.35,4.806c.156.264.316.534.478.812a1.855,1.855,0,0,1-.117,2.049l-3.525,4.7,6.7,6.7,4.7-3.524a1.855,1.855,0,0,1,2.136-.063,17.962,17.962,0,0,0,5.454,2.752,1.855,1.855,0,0,1,1.328,1.425Z" transform="translate(0 0)" fill="#fff"/>
    <path id="Ellipse_2" data-name="Ellipse 2" d="M13.974-.5A14.474,14.474,0,1,1-.5,13.974,14.49,14.49,0,0,1,13.974-.5Zm0,25.237A10.764,10.764,0,1,0,3.21,13.974,10.776,10.776,0,0,0,13.974,24.737Z" transform="translate(160.804 248.804)" fill="#fff"/>
  </g>
</svg>
