<svg xmlns="http://www.w3.org/2000/svg" width="44.854" height="44.854" viewBox="0 0 44.854 44.854">
  <path id="ic_palette_24px" d="M25.427,3a22.427,22.427,0,0,0,0,44.854A3.74,3.74,0,0,0,28.193,41.6a3.724,3.724,0,0,1,2.791-6.2h4.411a12.464,12.464,0,0,0,12.459-12.46C47.854,11.921,37.812,3,25.427,3ZM11.722,25.427a3.738,3.738,0,1,1,3.738-3.738A3.733,3.733,0,0,1,11.722,25.427ZM19.2,15.46a3.738,3.738,0,1,1,3.738-3.738A3.733,3.733,0,0,1,19.2,15.46Zm12.459,0a3.738,3.738,0,1,1,3.738-3.738A3.733,3.733,0,0,1,31.657,15.46Zm7.476,9.968a3.738,3.738,0,1,1,3.738-3.738A3.733,3.733,0,0,1,39.133,25.427Z" transform="translate(-3 -3)" fill="#dbdbdb"/>
</svg>
