<svg height="812" viewBox="0 0 375 812" width="375" xmlns="http://www.w3.org/2000/svg" xmlns:xlink="http://www.w3.org/1999/xlink"><clipPath id="a"><path d="m0 0h375v812h-375z"/></clipPath><g clip-path="url(#a)"><path d="m-8.5 690.5h-376v-507.621l.5-.506a50.179 50.179 0 0 1 3.471-8.948 73.575 73.575 0 0 1 5.318-9.171 78.5 78.5 0 0 1 8.576-10.513 86.892 86.892 0 0 1 29.535-19.684 113.456 113.456 0 0 1 22.265-6.487 153.612 153.612 0 0 1 28.132-2.46h.7c24.559.095 53.613.143 86.356.143 55.334 0 102.3-.142 102.644-.143h.009c.157 0 .741.015 1.671.015 5.724 0 25.91-.435 45.353-6.025 11.027-3.172 20.037-7.489 26.778-12.83a41.757 41.757 0 0 0 9.518-10.415 35.75 35.75 0 0 0 5.074-13.669c.038-.239.068-.414.1-.566z" fill="#666" transform="translate(384.5 121.499)"/></g></svg>