<?xml version="1.0" encoding="iso-8859-1"?>
<!-- Generator: Adobe Illustrator 19.0.0, SVG Export Plug-In . SVG Version: 6.00 Build 0)  -->
<svg version="1.1" id="Layer_1" xmlns="http://www.w3.org/2000/svg" xmlns:xlink="http://www.w3.org/1999/xlink" x="0px" y="0px"
	 viewBox="0 0 512 512" style="enable-background:new 0 0 512 512;" xml:space="preserve">
<g>
	<g>
		<g>
			<path d="M400.172,242.778l55.271-53.877c7.714-7.52,10.438-18.556,7.109-28.803s-12.019-17.573-22.682-19.124l-119.18-17.316
				L267.393,15.662C262.625,6.002,252.971,0.001,242.198,0c-10.773,0-20.428,6.002-25.196,15.662l-53.298,107.995L44.523,140.974
				c-10.662,1.55-19.353,8.879-22.682,19.125c-3.329,10.246-0.604,21.282,7.111,28.802l86.239,84.062L94.832,391.661
				c-1.821,10.618,2.462,21.148,11.177,27.481c4.925,3.579,10.687,5.396,16.488,5.396c4.466,0,8.955-1.076,13.102-3.257
				l78.559-41.301C217.698,453.376,278.516,512,352.774,512c76.523,0,138.78-62.257,138.78-138.781
				C491.554,313.334,453.426,262.189,400.172,242.778z M215.072,355.891l-89.197,46.892c-3.575,1.883-6.493,0.243-7.583-0.547
				c-1.089-0.791-3.546-3.06-2.864-7.041l21.287-124.112c0.582-3.39-0.542-6.848-3.005-9.249l-90.173-87.897
				c-2.892-2.819-2.238-6.1-1.822-7.38c0.416-1.28,1.814-4.32,5.812-4.9l124.616-18.107c3.403-0.495,6.346-2.633,7.867-5.717
				l55.73-112.921c1.788-3.622,5.111-4.013,6.456-4.013c1.346,0.001,4.669,0.392,6.455,4.013l55.729,112.921
				c1.522,3.083,4.464,5.221,7.868,5.717l124.616,18.106c3.998,0.582,5.396,3.622,5.813,4.901c0.415,1.28,1.07,4.56-1.822,7.38
				l-64.187,62.567c-7.766-1.353-15.748-2.066-23.895-2.066c-1.334,0-2.662,0.023-3.987,0.062l42.447-41.375
				c2.848-2.776,3.872-6.929,2.644-10.711c-1.23-3.783-4.499-6.54-8.435-7.113l-92.505-13.441l-41.369-83.825
				c-1.761-3.566-5.393-5.824-9.37-5.824c-3.977,0-7.61,2.258-9.37,5.824l-41.37,83.824l-92.506,13.442
				c-3.936,0.573-7.206,3.33-8.435,7.113c-1.23,3.783-0.204,7.935,2.645,10.711l66.938,65.247l-15.802,92.132
				c-0.673,3.92,0.938,7.882,4.157,10.219c1.82,1.324,3.976,1.996,6.143,1.996c1.662,0,3.332-0.397,4.861-1.2l61.739-32.458
				C218.302,337.662,216.23,346.637,215.072,355.891z M178.619,247.241l-55.71-54.303l76.99-11.188
				c3.403-0.495,6.346-2.633,7.867-5.717l34.431-69.764l34.429,69.765c1.522,3.083,4.464,5.221,7.868,5.717l76.989,11.187
				l-48.57,47.343c-31.632,9.502-58.546,30.006-76.278,57.052l-68.164,35.836l13.151-76.679
				C182.206,253.1,181.082,249.642,178.619,247.241z M352.774,491.102c-65.002,0-117.884-52.882-117.884-117.883
				s52.882-117.882,117.884-117.882c65.001,0,117.882,52.881,117.882,117.882S417.775,491.102,352.774,491.102z"/>
			<path d="M415.287,362.58H289.9c-5.77,0-10.449,4.679-10.449,10.449c0,5.77,4.679,10.449,10.449,10.449h125.388
				c5.77,0,10.449-4.679,10.449-10.449C425.736,367.259,421.057,362.58,415.287,362.58z"/>
		</g>
	</g>
</g>
<g>
</g>
<g>
</g>
<g>
</g>
<g>
</g>
<g>
</g>
<g>
</g>
<g>
</g>
<g>
</g>
<g>
</g>
<g>
</g>
<g>
</g>
<g>
</g>
<g>
</g>
<g>
</g>
<g>
</g>
</svg>
