<svg height="19.818" viewBox="0 0 21.612 19.818" width="21.612" xmlns="http://www.w3.org/2000/svg"><g fill="#fff"><path d="m1862.409 1257.815a.354.354 0 0 1 -.354-.354v-3.469a1.2 1.2 0 0 0 -1.2-1.2h-17.388a1.4 1.4 0 0 1 0-2.794h17.51a1.788 1.788 0 0 1 1.786 1.786.354.354 0 0 1 -.708 0 1.079 1.079 0 0 0 -1.078-1.078h-17.51a.689.689 0 0 0 0 1.378h17.388a1.91 1.91 0 0 1 1.908 1.908v3.469a.354.354 0 0 1 -.354.354z" transform="translate(-1842.07 -1249.997)"/><path d="m1860.94 1278.288h-17.047a1.825 1.825 0 0 1 -1.823-1.823v-16.6a.354.354 0 1 1 .708 0v16.6a1.116 1.116 0 0 0 1.115 1.115h17.047a1.116 1.116 0 0 0 1.115-1.115v-3.86a.354.354 0 0 1 .708 0v3.86a1.825 1.825 0 0 1 -1.823 1.823z" transform="translate(-1842.07 -1258.47)"/><path d="m1856.069 1283.541h-.332a.354.354 0 0 1 0-.708h.332a.354.354 0 0 1 0 .708z" transform="translate(-1853.924 -1279.234)"/><path d="m1871.322 1283.541h-.332a.354.354 0 0 1 0-.708h.332a.354.354 0 0 1 0 .708z" transform="translate(-1867.505 -1279.234)"/><path d="m1886.574 1283.541h-.332a.354.354 0 0 1 0-.708h.332a.354.354 0 0 1 0 .708z" transform="translate(-1881.085 -1279.234)"/><path d="m1901.827 1283.541h-.332a.354.354 0 0 1 0-.708h.332a.354.354 0 0 1 0 .708z" transform="translate(-1894.666 -1279.234)"/><path d="m1917.08 1283.541h-.332a.354.354 0 0 1 0-.708h.332a.354.354 0 0 1 0 .708z" transform="translate(-1908.247 -1279.234)"/><path d="m1932.333 1283.541h-.333a.354.354 0 0 1 0-.708h.332a.354.354 0 1 1 0 .708z" transform="translate(-1921.828 -1279.234)"/><path d="m1947.586 1283.541h-.332a.354.354 0 0 1 0-.708h.332a.354.354 0 0 1 0 .708z" transform="translate(-1935.409 -1279.234)"/><path d="m1962.839 1283.541h-.332a.354.354 0 0 1 0-.708h.332a.354.354 0 0 1 0 .708z" transform="translate(-1948.99 -1279.234)"/><path d="m1978.091 1283.541h-.332a.354.354 0 0 1 0-.708h.332a.354.354 0 0 1 0 .708z" transform="translate(-1962.57 -1279.234)"/><path d="m1993.344 1283.541h-.332a.354.354 0 1 1 0-.708h.332a.354.354 0 1 1 0 .708z" transform="translate(-1976.151 -1279.234)"/><path d="m2008.6 1283.541h-.332a.354.354 0 0 1 0-.708h.332a.354.354 0 1 1 0 .708z" transform="translate(-1989.732 -1279.234)"/><path d="m2011.3 1397.9a.354.354 0 0 1 -.354-.354v-.332a.354.354 0 0 1 .708 0v.332a.354.354 0 0 1 -.354.354z" transform="translate(-1992.43 -1380.759)"/><path d="m2011.3 1380.89a.354.354 0 0 1 -.354-.354v-.332a.354.354 0 0 1 .708 0v.332a.354.354 0 0 1 -.354.354z" transform="translate(-1992.43 -1365.616)"/><path d="m2011.3 1312.863a.354.354 0 0 1 -.354-.354v-.332a.354.354 0 1 1 .708 0v.332a.354.354 0 0 1 -.354.354z" transform="translate(-1992.43 -1305.046)"/><path d="m2011.3 1295.857a.354.354 0 0 1 -.354-.354v-.332a.354.354 0 0 1 .708 0v.332a.354.354 0 0 1 -.354.354z" transform="translate(-1992.43 -1289.904)"/><path d="m1856.069 1412.142h-.332a.354.354 0 0 1 0-.708h.332a.354.354 0 0 1 0 .708z" transform="translate(-1853.924 -1393.737)"/><path d="m1871.322 1412.142h-.332a.354.354 0 0 1 0-.708h.332a.354.354 0 0 1 0 .708z" transform="translate(-1867.505 -1393.737)"/><path d="m1886.574 1412.142h-.332a.354.354 0 0 1 0-.708h.332a.354.354 0 0 1 0 .708z" transform="translate(-1881.085 -1393.737)"/><path d="m1901.827 1412.142h-.332a.354.354 0 0 1 0-.708h.332a.354.354 0 0 1 0 .708z" transform="translate(-1894.666 -1393.737)"/><path d="m1917.08 1412.142h-.332a.354.354 0 0 1 0-.708h.332a.354.354 0 0 1 0 .708z" transform="translate(-1908.247 -1393.737)"/><path d="m1932.333 1412.142h-.333a.354.354 0 0 1 0-.708h.332a.354.354 0 1 1 0 .708z" transform="translate(-1921.828 -1393.737)"/><path d="m1947.586 1412.142h-.332a.354.354 0 0 1 0-.708h.332a.354.354 0 0 1 0 .708z" transform="translate(-1935.409 -1393.737)"/><path d="m1962.839 1412.142h-.332a.354.354 0 0 1 0-.708h.332a.354.354 0 0 1 0 .708z" transform="translate(-1948.99 -1393.737)"/><path d="m1978.091 1412.142h-.332a.354.354 0 0 1 0-.708h.332a.354.354 0 0 1 0 .708z" transform="translate(-1962.57 -1393.737)"/><path d="m1993.344 1412.142h-.332a.354.354 0 1 1 0-.708h.332a.354.354 0 1 1 0 .708z" transform="translate(-1976.151 -1393.737)"/><path d="m2008.6 1412.142h-.332a.354.354 0 0 1 0-.708h.332a.354.354 0 1 1 0 .708z" transform="translate(-1989.732 -1393.737)"/><path d="m1980.5 1332.06h-3.814a2.4 2.4 0 1 1 0-4.8h3.814a.907.907 0 0 1 .906.906v2.986a.907.907 0 0 1 -.906.908zm-3.814-4.089a1.691 1.691 0 1 0 0 3.381h3.814a.2.2 0 0 0 .2-.2v-2.986a.2.2 0 0 0 -.2-.2z" transform="translate(-1959.791 -1318.793)"/><path d="m1986.912 1341.273a1.1 1.1 0 1 1 1.105-1.1 1.106 1.106 0 0 1 -1.105 1.1zm0-1.5a.4.4 0 1 0 .4.4.4.4 0 0 0 -.4-.402z" transform="translate(-1970.051 -1329.3)"/></g></svg>