<svg height="20.818" viewBox="0 0 17.356 20.818" width="17.356" xmlns="http://www.w3.org/2000/svg"><path d="m-188.614 265.018h1.848v-.841a.357.357 0 0 1 .4-.349.4.4 0 0 1 .417.349v.841h1.768v-.841a.409.409 0 0 1 .418-.349.4.4 0 0 1 .4.349v.841h1.855v-.841a.357.357 0 0 1 .4-.349.4.4 0 0 1 .4.349v.841h1.787v-.841a.4.4 0 0 1 .4-.349.408.408 0 0 1 .419.349v.841h1.834a3.178 3.178 0 0 1 1.781.631 2.131 2.131 0 0 1 .69 1.485v17.175c0 .227-.154.337-.426.337h-16.526c-.207 0-.4-.11-.4-.337v-17.175a1.919 1.919 0 0 1 .755-1.485 3.128 3.128 0 0 1 1.769-.631zm9.1 15.814a.414.414 0 0 1 .4.355.409.409 0 0 1 -.418.336h-6.9a.4.4 0 0 1 -.4-.336.413.413 0 0 1 .4-.355zm-6.038-3.244 1.063.881 4.755-2.188 3.014-2.493a.68.68 0 0 1 .887 0 .458.458 0 0 1 0 .689l-3.14 2.549-.138.109-8.951 4.108c-.067 0-.2.054-.263.054h-.074c-.08 0-.148-.054-.213-.054-.205-.112-.14-.112-.271-.228 0-.054-.067-.122-.067-.237s.067-.169.067-.222l4.915-7.453.146-.174 3.058-2.557a.731.731 0 0 1 .831 0 .393.393 0 0 1 0 .683l-3.011 2.567zm6.984-5.511a.366.366 0 0 1 .549 0 .25.25 0 0 1 0 .463l-2.743 2.33a.593.593 0 0 1 -.6 0 .371.371 0 0 1 0-.509zm.485-6.313v.855a.424.424 0 0 1 -.419.349.416.416 0 0 1 -.4-.349v-.855h-1.798v.855a.413.413 0 0 1 -.4.349.368.368 0 0 1 -.4-.349v-.855h-1.855v.855a.413.413 0 0 1 -.4.349.425.425 0 0 1 -.418-.349v-.855h-1.768v.855a.417.417 0 0 1 -.417.349.368.368 0 0 1 -.4-.349v-.855h-1.848a1.548 1.548 0 0 0 -1.159.4 1.148 1.148 0 0 0 -.543.965v16.839h15.708v-16.834a1.066 1.066 0 0 0 -.492-.965 1.51 1.51 0 0 0 -1.158-.4z" fill="#fff" fill-rule="evenodd" transform="translate(191.138 -263.828)"/></svg>